<?xml version="1.0" encoding="utf-8"?>
<!-- Svg Vector Icons : http://www.onlinewebfonts.com/icon -->
<!DOCTYPE svg PUBLIC "-//W3C//DTD SVG 1.1//EN" "http://www.w3.org/Graphics/SVG/1.1/DTD/svg11.dtd">
<svg
  version="1.1"
  xmlns="http://www.w3.org/2000/svg"
  xmlns:xlink="http://www.w3.org/1999/xlink"
  x="0px"
  y="0px"
  viewBox="0 0 1000 1000"
  enable-background="new 0 0 1000 1000"
  xml:space="preserve"
>
<metadata> Svg Vector Icons : http://www.onlinewebfonts.com/icon </metadata>
<g>
  <g transform="translate(0.000000,511.000000) scale(0.100000,-0.100000)">
    <path fill="#264653" d="M8784.7,4640.3l-363.4-363.4l370.9-370.9l368.4-368.4l368.4,368.4l370.9,370.9l-363.4,363.4c-200.5,200.5-368.4,363.4-376,363.4C9153.1,5003.7,8985.2,4840.8,8784.7,4640.3z"/>
    <path  fill="#264653" d="M6719.4,4768.1c-117.8-45.1-260.6-175.4-305.8-283.2c-45.1-107.8-45.1-313.3,2.5-428.6c50.1-115.3,2328.4-2408.6,2491.4-2503.9c210.5-125.3,518.8-67.7,661.7,122.8c122.8,165.4,150.4,360.9,72.7,528.8c-47.6,105.3-2401.1,2476.3-2518.9,2539C7020.1,4798.2,6832.2,4810.7,6719.4,4768.1z"/>
    <path  fill="#264653" d="M5258.2,4028.7c-117.8-30.1-195.5-85.2-428.6-313.3c-315.8-305.8-393.5-478.7-330.8-716.8c25.1-100.3,105.3-188,654.2-739.4l624.1-626.6L4641.6,497.2C4020-124.3,3498.7-635.7,3483.6-635.7c-12.5,0-300.8,275.7-639.1,611.6c-538.9,538.9-626.6,616.6-726.9,641.6c-137.9,37.6-283.2,15-413.6-62.7c-122.8-70.2-518.8-476.2-579-591.5c-57.6-112.8-57.6-335.9,0-448.7c62.7-122.8,3135.5-3198.1,3260.8-3265.8c135.3-70.2,340.9-70.2,476.2,0c55.1,30.1,215.5,170.4,355.9,313.3c263.2,273.2,308.3,353.4,308.3,546.4c-2.5,172.9-82.7,275.7-686.8,877.2c-325.8,323.3-591.5,599-591.5,614.1c0,32.6,2235.7,2268.3,2268.3,2268.3c15,0,290.7-265.7,614.1-591.5c599-601.5,704.3-684.2,874.7-686.7c188,0,280.7,52.6,551.4,313.3c140.4,137.9,280.7,295.8,310.8,350.9c67.7,127.8,70.2,340.9,7.5,463.7c-57.6,115.3-3133,3198.2-3248.3,3255.8C5516.3,4031.3,5363.4,4053.8,5258.2,4028.7z"/>
    <path  fill="#264653" d="M626.3-1297.3c-110.3-47.6-255.7-223.1-288.2-345.9c-32.6-115.3-17.5-263.2,37.6-368.4c62.7-122.8,2421.2-2461.3,2531.5-2511.4c172.9-80.2,365.9-52.6,533.9,70.2c190.5,142.9,248.1,451.2,122.8,661.7c-95.3,162.9-2388.6,2441.2-2503.9,2491.4C947.2-1254.7,729.1-1252.2,626.3-1297.3z"/>
    <path  fill="#264653" d="M463.4-3680.9L100-4044.3l370.9-370.9l368.4-368.4l368.4,368.4l370.9,370.9l-363.4,363.4c-200.5,200.5-368.4,363.4-376,363.4S663.9-3480.4,463.4-3680.9z"/>
  </g>
</g>
</svg>
